<mxfile host="app.diagrams.net" modified="2024-01-04T13:22:27.744Z" agent="Mozilla/5.0 (Windows NT 10.0; Win64; x64) AppleWebKit/537.36 (KHTML, like Gecko) Chrome/120.0.0.0 Safari/537.36" etag="lhYogDngo18AlJ2c9SMu" version="22.1.16" type="device">
  <diagram name="Page-1" id="8F8q21Rln6fJG1tnKdz3">
    <mxGraphModel dx="1795" dy="595" grid="1" gridSize="10" guides="1" tooltips="1" connect="1" arrows="0" fold="1" page="1" pageScale="1" pageWidth="690" pageHeight="980" math="0" shadow="0">
      <root>
        <mxCell id="0" />
        <mxCell id="1" parent="0" />
        <mxCell id="TarQ6_jnv9ZqROeu05a5-2" style="edgeStyle=orthogonalEdgeStyle;rounded=0;orthogonalLoop=1;jettySize=auto;html=1;exitX=0.5;exitY=0.5;exitDx=0;exitDy=25;exitPerimeter=0;entryX=0.5;entryY=0;entryDx=0;entryDy=0;endArrow=none;endFill=0;strokeWidth=1;" parent="1" source="TarQ6_jnv9ZqROeu05a5-3" target="TarQ6_jnv9ZqROeu05a5-9" edge="1">
          <mxGeometry relative="1" as="geometry" />
        </mxCell>
        <mxCell id="TarQ6_jnv9ZqROeu05a5-3" value="&lt;font style=&quot;font-size: 12px&quot;&gt;Начало&lt;/font&gt;" style="html=1;dashed=0;whitespace=wrap;shape=mxgraph.dfd.start;strokeWidth=2;" parent="1" vertex="1">
          <mxGeometry x="110" y="40" width="200" height="50" as="geometry" />
        </mxCell>
        <mxCell id="TarQ6_jnv9ZqROeu05a5-4" style="edgeStyle=orthogonalEdgeStyle;rounded=0;orthogonalLoop=1;jettySize=auto;html=1;exitX=0.5;exitY=1;exitDx=0;exitDy=0;" parent="1" edge="1">
          <mxGeometry relative="1" as="geometry">
            <mxPoint x="160" y="180" as="sourcePoint" />
            <mxPoint x="160" y="180" as="targetPoint" />
          </mxGeometry>
        </mxCell>
        <mxCell id="TarQ6_jnv9ZqROeu05a5-9" value="res = -1" style="rounded=0;whiteSpace=wrap;html=1;strokeWidth=2;" parent="1" vertex="1">
          <mxGeometry x="110" y="125" width="200" height="55" as="geometry" />
        </mxCell>
        <mxCell id="TarQ6_jnv9ZqROeu05a5-10" value="&lt;font style=&quot;font-size: 12px&quot;&gt;Конец&lt;/font&gt;" style="html=1;dashed=0;whitespace=wrap;shape=mxgraph.dfd.start;strokeWidth=2;" parent="1" vertex="1">
          <mxGeometry x="110" y="645" width="200" height="45" as="geometry" />
        </mxCell>
        <mxCell id="TarQ6_jnv9ZqROeu05a5-22" value="Цикл i от 0 до A.size() - 1,&lt;br&gt;&amp;nbsp;не включая правую границу" style="shape=loopLimit;whiteSpace=wrap;html=1;strokeWidth=2;" parent="1" vertex="1">
          <mxGeometry x="110" y="210" width="200" height="55" as="geometry" />
        </mxCell>
        <mxCell id="TarQ6_jnv9ZqROeu05a5-25" value="Конец цикл по i" style="shape=loopLimit;whiteSpace=wrap;html=1;strokeWidth=2;direction=west;" parent="1" vertex="1">
          <mxGeometry x="110" y="470" width="200" height="55" as="geometry" />
        </mxCell>
        <mxCell id="TarQ6_jnv9ZqROeu05a5-27" value="x = A[i]" style="rhombus;whiteSpace=wrap;html=1;strokeWidth=2;" parent="1" vertex="1">
          <mxGeometry x="110" y="300" width="200" height="65" as="geometry" />
        </mxCell>
        <mxCell id="TarQ6_jnv9ZqROeu05a5-30" value="&lt;font style=&quot;font-size: 12px&quot;&gt;Вернуть res&lt;br&gt;&lt;/font&gt;" style="rounded=0;whiteSpace=wrap;html=1;strokeWidth=2;" parent="1" vertex="1">
          <mxGeometry x="110" y="560" width="200" height="50" as="geometry" />
        </mxCell>
        <mxCell id="TarQ6_jnv9ZqROeu05a5-35" value="" style="endArrow=none;html=1;rounded=0;exitX=0.5;exitY=1;exitDx=0;exitDy=0;entryX=0.5;entryY=0.5;entryDx=0;entryDy=-22.5;entryPerimeter=0;" parent="1" source="TarQ6_jnv9ZqROeu05a5-30" target="TarQ6_jnv9ZqROeu05a5-10" edge="1">
          <mxGeometry width="50" height="50" relative="1" as="geometry">
            <mxPoint x="320" y="-30" as="sourcePoint" />
            <mxPoint x="330" y="210" as="targetPoint" />
          </mxGeometry>
        </mxCell>
        <mxCell id="TarQ6_jnv9ZqROeu05a5-39" value="" style="endArrow=none;html=1;rounded=0;entryX=0.5;entryY=1;entryDx=0;entryDy=0;exitX=0.5;exitY=1;exitDx=0;exitDy=0;" parent="1" source="TarQ6_jnv9ZqROeu05a5-25" target="TarQ6_jnv9ZqROeu05a5-27" edge="1">
          <mxGeometry width="50" height="50" relative="1" as="geometry">
            <mxPoint x="210" y="380" as="sourcePoint" />
            <mxPoint x="370" y="150" as="targetPoint" />
          </mxGeometry>
        </mxCell>
        <mxCell id="TarQ6_jnv9ZqROeu05a5-40" value="" style="endArrow=none;html=1;rounded=0;exitX=0.5;exitY=1;exitDx=0;exitDy=0;entryX=0.5;entryY=0;entryDx=0;entryDy=0;" parent="1" source="TarQ6_jnv9ZqROeu05a5-22" target="TarQ6_jnv9ZqROeu05a5-27" edge="1">
          <mxGeometry width="50" height="50" relative="1" as="geometry">
            <mxPoint x="320" y="200" as="sourcePoint" />
            <mxPoint x="370" y="150" as="targetPoint" />
          </mxGeometry>
        </mxCell>
        <mxCell id="TarQ6_jnv9ZqROeu05a5-41" value="" style="endArrow=none;html=1;rounded=0;entryX=0.5;entryY=1;entryDx=0;entryDy=0;exitX=0.5;exitY=0;exitDx=0;exitDy=0;" parent="1" source="TarQ6_jnv9ZqROeu05a5-22" target="TarQ6_jnv9ZqROeu05a5-9" edge="1">
          <mxGeometry width="50" height="50" relative="1" as="geometry">
            <mxPoint x="320" y="200" as="sourcePoint" />
            <mxPoint x="370" y="150" as="targetPoint" />
          </mxGeometry>
        </mxCell>
        <mxCell id="FXeg3vscnMzhzsJvECvC-1" style="edgeStyle=orthogonalEdgeStyle;rounded=0;orthogonalLoop=1;jettySize=auto;html=1;exitX=0;exitY=0.5;exitDx=0;exitDy=0;exitPerimeter=0;dashed=1;endArrow=none;endFill=0;" edge="1" parent="1" target="FXeg3vscnMzhzsJvECvC-2" source="TarQ6_jnv9ZqROeu05a5-3">
          <mxGeometry relative="1" as="geometry">
            <mxPoint x="85" y="65" as="sourcePoint" />
          </mxGeometry>
        </mxCell>
        <mxCell id="FXeg3vscnMzhzsJvECvC-2" value="&lt;div style=&quot;text-align: right&quot;&gt;&lt;br&gt;&lt;/div&gt;" style="strokeWidth=2;html=1;shape=mxgraph.flowchart.annotation_1;align=left;pointerEvents=1;rotation=-180;" vertex="1" parent="1">
          <mxGeometry x="10" y="21.5" width="50" height="87" as="geometry" />
        </mxCell>
        <mxCell id="FXeg3vscnMzhzsJvECvC-3" value="&lt;div style=&quot;color: rgb(0, 0, 0); font-family: helvetica; font-size: 12px; font-style: normal; font-weight: 400; letter-spacing: normal; text-indent: 0px; text-transform: none; word-spacing: 0px;&quot;&gt;Алгоритм поиска элемента в массиве методом полного перебора&lt;/div&gt;&lt;div style=&quot;color: rgb(0, 0, 0); font-family: helvetica; font-size: 12px; font-style: normal; font-weight: 400; letter-spacing: normal; text-indent: 0px; text-transform: none; word-spacing: 0px;&quot;&gt;Вход: массив целых чисел A, целое число x&lt;/div&gt;&lt;div style=&quot;color: rgb(0, 0, 0); font-family: helvetica; font-size: 12px; font-style: normal; font-weight: 400; letter-spacing: normal; text-indent: 0px; text-transform: none; word-spacing: 0px;&quot;&gt;Выход: индекс первого вхождения числа x&lt;/div&gt;" style="text;whiteSpace=wrap;html=1;align=right;" vertex="1" parent="1">
          <mxGeometry x="-190" y="25" width="250" height="60" as="geometry" />
        </mxCell>
        <mxCell id="FXeg3vscnMzhzsJvECvC-5" value="&lt;font style=&quot;font-size: 12px&quot;&gt;res = i&lt;br&gt;&lt;/font&gt;" style="rounded=0;whiteSpace=wrap;html=1;strokeWidth=2;" vertex="1" parent="1">
          <mxGeometry x="345" y="400" width="200" height="55" as="geometry" />
        </mxCell>
        <mxCell id="FXeg3vscnMzhzsJvECvC-6" value="" style="endArrow=classic;html=1;rounded=0;exitX=1;exitY=0.5;exitDx=0;exitDy=0;entryX=0.5;entryY=0;entryDx=0;entryDy=0;" edge="1" parent="1" source="TarQ6_jnv9ZqROeu05a5-27" target="FXeg3vscnMzhzsJvECvC-5">
          <mxGeometry width="50" height="50" relative="1" as="geometry">
            <mxPoint x="390" y="330" as="sourcePoint" />
            <mxPoint x="440" y="280" as="targetPoint" />
            <Array as="points">
              <mxPoint x="445" y="333" />
            </Array>
          </mxGeometry>
        </mxCell>
        <mxCell id="FXeg3vscnMzhzsJvECvC-7" value="" style="endArrow=classic;html=1;rounded=0;exitX=0.5;exitY=1;exitDx=0;exitDy=0;" edge="1" parent="1" source="FXeg3vscnMzhzsJvECvC-5">
          <mxGeometry width="50" height="50" relative="1" as="geometry">
            <mxPoint x="630" y="640" as="sourcePoint" />
            <mxPoint x="210" y="540" as="targetPoint" />
            <Array as="points">
              <mxPoint x="445" y="540" />
            </Array>
          </mxGeometry>
        </mxCell>
        <mxCell id="FXeg3vscnMzhzsJvECvC-9" value="" style="endArrow=none;html=1;rounded=0;exitX=0.5;exitY=0;exitDx=0;exitDy=0;entryX=0.5;entryY=0;entryDx=0;entryDy=0;" edge="1" parent="1" source="TarQ6_jnv9ZqROeu05a5-25" target="TarQ6_jnv9ZqROeu05a5-30">
          <mxGeometry width="50" height="50" relative="1" as="geometry">
            <mxPoint x="220" y="620" as="sourcePoint" />
            <mxPoint x="220" y="655" as="targetPoint" />
          </mxGeometry>
        </mxCell>
        <mxCell id="FXeg3vscnMzhzsJvECvC-10" value="да" style="text;html=1;align=center;verticalAlign=middle;resizable=0;points=[];autosize=1;strokeColor=none;fillColor=none;" vertex="1" parent="1">
          <mxGeometry x="310" y="308" width="40" height="30" as="geometry" />
        </mxCell>
      </root>
    </mxGraphModel>
  </diagram>
</mxfile>
